<mxfile host="app.diagrams.net" agent="Mozilla/5.0 (Macintosh; Intel Mac OS X 10_15_7) AppleWebKit/605.1.15 (KHTML, like Gecko) Version/17.2.1 Safari/605.1.15" version="26.0.4">
  <diagram name="Page-1" id="9iIHqUjmjjDbTK27ZTks">
    <mxGraphModel dx="2190" dy="1946" grid="1" gridSize="10" guides="1" tooltips="1" connect="1" arrows="1" fold="1" page="1" pageScale="1" pageWidth="827" pageHeight="1169" math="0" shadow="0">
      <root>
        <mxCell id="0" />
        <mxCell id="1" parent="0" />
        <mxCell id="vzX0lWGsWnRLWm--g_cP-1" value="" style="shape=umlActor;verticalLabelPosition=bottom;verticalAlign=top;html=1;outlineConnect=0;" parent="1" vertex="1">
          <mxGeometry x="-20" y="30" width="110" height="210" as="geometry" />
        </mxCell>
        <mxCell id="vzX0lWGsWnRLWm--g_cP-2" value="&amp;lt;&amp;lt;controller&amp;gt;&amp;gt;&lt;div&gt;ValidatingOrder&lt;/div&gt;" style="rounded=0;whiteSpace=wrap;html=1;" parent="1" vertex="1">
          <mxGeometry x="280" y="67" width="240" height="140" as="geometry" />
        </mxCell>
        <mxCell id="vzX0lWGsWnRLWm--g_cP-3" value="userprofile" style="rounded=0;whiteSpace=wrap;html=1;" parent="1" vertex="1">
          <mxGeometry x="780" y="-220" width="240" height="140" as="geometry" />
        </mxCell>
        <mxCell id="vzX0lWGsWnRLWm--g_cP-4" value="order" style="rounded=0;whiteSpace=wrap;html=1;" parent="1" vertex="1">
          <mxGeometry x="780" y="67" width="240" height="140" as="geometry" />
        </mxCell>
        <mxCell id="vzX0lWGsWnRLWm--g_cP-5" value="car/room/ticket" style="rounded=0;whiteSpace=wrap;html=1;" parent="1" vertex="1">
          <mxGeometry x="770" y="350" width="240" height="140" as="geometry" />
        </mxCell>
        <mxCell id="vzX0lWGsWnRLWm--g_cP-6" value="" style="endArrow=none;html=1;rounded=0;exitX=0.5;exitY=0.5;exitDx=0;exitDy=0;exitPerimeter=0;entryX=0;entryY=0.5;entryDx=0;entryDy=0;" parent="1" source="vzX0lWGsWnRLWm--g_cP-1" target="vzX0lWGsWnRLWm--g_cP-2" edge="1">
          <mxGeometry width="50" height="50" relative="1" as="geometry">
            <mxPoint x="390" y="290" as="sourcePoint" />
            <mxPoint x="440" y="240" as="targetPoint" />
          </mxGeometry>
        </mxCell>
        <mxCell id="vzX0lWGsWnRLWm--g_cP-7" value="" style="endArrow=none;html=1;rounded=0;exitX=1;exitY=0.5;exitDx=0;exitDy=0;entryX=0;entryY=0.5;entryDx=0;entryDy=0;" parent="1" source="vzX0lWGsWnRLWm--g_cP-2" target="vzX0lWGsWnRLWm--g_cP-3" edge="1">
          <mxGeometry width="50" height="50" relative="1" as="geometry">
            <mxPoint x="390" y="290" as="sourcePoint" />
            <mxPoint x="440" y="240" as="targetPoint" />
          </mxGeometry>
        </mxCell>
        <mxCell id="vzX0lWGsWnRLWm--g_cP-8" value="" style="endArrow=none;html=1;rounded=0;exitX=1;exitY=0.5;exitDx=0;exitDy=0;entryX=0;entryY=0.5;entryDx=0;entryDy=0;" parent="1" source="vzX0lWGsWnRLWm--g_cP-2" target="vzX0lWGsWnRLWm--g_cP-4" edge="1">
          <mxGeometry width="50" height="50" relative="1" as="geometry">
            <mxPoint x="400" y="300" as="sourcePoint" />
            <mxPoint x="450" y="250" as="targetPoint" />
          </mxGeometry>
        </mxCell>
        <mxCell id="vzX0lWGsWnRLWm--g_cP-9" value="" style="endArrow=none;html=1;rounded=0;entryX=1;entryY=0.5;entryDx=0;entryDy=0;exitX=0;exitY=0.5;exitDx=0;exitDy=0;" parent="1" source="vzX0lWGsWnRLWm--g_cP-5" target="vzX0lWGsWnRLWm--g_cP-2" edge="1">
          <mxGeometry width="50" height="50" relative="1" as="geometry">
            <mxPoint x="410" y="310" as="sourcePoint" />
            <mxPoint x="460" y="260" as="targetPoint" />
          </mxGeometry>
        </mxCell>
        <mxCell id="vzX0lWGsWnRLWm--g_cP-10" value="1.validateorderreq(Ord_ID,cust_ID)" style="text;html=1;align=center;verticalAlign=middle;whiteSpace=wrap;rounded=0;" parent="1" vertex="1">
          <mxGeometry x="150" y="-50" width="60" height="30" as="geometry" />
        </mxCell>
        <mxCell id="vzX0lWGsWnRLWm--g_cP-12" value="" style="endArrow=classic;html=1;rounded=0;" parent="1" edge="1">
          <mxGeometry width="50" height="50" relative="1" as="geometry">
            <mxPoint x="110" y="-10" as="sourcePoint" />
            <mxPoint x="250" y="-10" as="targetPoint" />
          </mxGeometry>
        </mxCell>
        <mxCell id="vzX0lWGsWnRLWm--g_cP-13" value="" style="endArrow=classic;html=1;rounded=0;" parent="1" edge="1">
          <mxGeometry width="50" height="50" relative="1" as="geometry">
            <mxPoint x="550" y="-190" as="sourcePoint" />
            <mxPoint x="760" y="-190" as="targetPoint" />
          </mxGeometry>
        </mxCell>
        <mxCell id="vzX0lWGsWnRLWm--g_cP-14" value="1.1.getcustworthness(Cust_ID)" style="text;html=1;align=center;verticalAlign=middle;whiteSpace=wrap;rounded=0;" parent="1" vertex="1">
          <mxGeometry x="600" y="-220" width="60" height="30" as="geometry" />
        </mxCell>
        <mxCell id="vzX0lWGsWnRLWm--g_cP-15" value="" style="endArrow=classic;html=1;rounded=0;" parent="1" edge="1">
          <mxGeometry width="50" height="50" relative="1" as="geometry">
            <mxPoint x="750" y="-150.91" as="sourcePoint" />
            <mxPoint x="550" y="-150.91" as="targetPoint" />
          </mxGeometry>
        </mxCell>
        <mxCell id="vzX0lWGsWnRLWm--g_cP-17" value="1.2.cust_cWorthness(creditworthness)" style="text;html=1;align=center;verticalAlign=middle;whiteSpace=wrap;rounded=0;" parent="1" vertex="1">
          <mxGeometry x="620" y="-180" width="60" height="30" as="geometry" />
        </mxCell>
        <mxCell id="vzX0lWGsWnRLWm--g_cP-18" value="" style="endArrow=classic;html=1;rounded=0;" parent="1" edge="1">
          <mxGeometry width="50" height="50" relative="1" as="geometry">
            <mxPoint x="600" y="70" as="sourcePoint" />
            <mxPoint x="770" y="70" as="targetPoint" />
          </mxGeometry>
        </mxCell>
        <mxCell id="vzX0lWGsWnRLWm--g_cP-19" value="1.3.getorderdetails(Ord_ID)" style="text;html=1;align=center;verticalAlign=middle;whiteSpace=wrap;rounded=0;" parent="1" vertex="1">
          <mxGeometry x="650" y="37" width="60" height="30" as="geometry" />
        </mxCell>
        <mxCell id="vzX0lWGsWnRLWm--g_cP-20" value="" style="endArrow=classic;html=1;rounded=0;" parent="1" edge="1">
          <mxGeometry width="50" height="50" relative="1" as="geometry">
            <mxPoint x="750" y="130" as="sourcePoint" />
            <mxPoint x="590" y="130" as="targetPoint" />
          </mxGeometry>
        </mxCell>
        <mxCell id="vzX0lWGsWnRLWm--g_cP-21" value="1.4.returndetail(type,car_id/room_id,ticket_id)" style="text;html=1;align=center;verticalAlign=middle;whiteSpace=wrap;rounded=0;" parent="1" vertex="1">
          <mxGeometry x="650" y="100" width="60" height="30" as="geometry" />
        </mxCell>
        <mxCell id="vzX0lWGsWnRLWm--g_cP-22" value="" style="endArrow=classic;html=1;rounded=0;" parent="1" edge="1">
          <mxGeometry width="50" height="50" relative="1" as="geometry">
            <mxPoint x="680" y="310" as="sourcePoint" />
            <mxPoint x="770" y="310" as="targetPoint" />
          </mxGeometry>
        </mxCell>
        <mxCell id="vzX0lWGsWnRLWm--g_cP-23" value="1.5.getprice(car_id/room_id/ticket_id)" style="text;html=1;align=center;verticalAlign=middle;whiteSpace=wrap;rounded=0;" parent="1" vertex="1">
          <mxGeometry x="730" y="280" width="60" height="30" as="geometry" />
        </mxCell>
        <mxCell id="vzX0lWGsWnRLWm--g_cP-24" value="" style="endArrow=classic;html=1;rounded=0;" parent="1" edge="1">
          <mxGeometry width="50" height="50" relative="1" as="geometry">
            <mxPoint x="750" y="450" as="sourcePoint" />
            <mxPoint x="600" y="450" as="targetPoint" />
          </mxGeometry>
        </mxCell>
        <mxCell id="vzX0lWGsWnRLWm--g_cP-25" value="1.6.returnprice(price)" style="text;html=1;align=center;verticalAlign=middle;whiteSpace=wrap;rounded=0;" parent="1" vertex="1">
          <mxGeometry x="650" y="420" width="60" height="30" as="geometry" />
        </mxCell>
        <mxCell id="vzX0lWGsWnRLWm--g_cP-26" value="" style="endArrow=classic;html=1;rounded=0;" parent="1" edge="1">
          <mxGeometry width="50" height="50" relative="1" as="geometry">
            <mxPoint x="260" y="240" as="sourcePoint" />
            <mxPoint x="100" y="240" as="targetPoint" />
          </mxGeometry>
        </mxCell>
        <mxCell id="vzX0lWGsWnRLWm--g_cP-27" value="1.7.return_confirmation(boolean)" style="text;html=1;align=center;verticalAlign=middle;whiteSpace=wrap;rounded=0;" parent="1" vertex="1">
          <mxGeometry x="160" y="210" width="60" height="30" as="geometry" />
        </mxCell>
      </root>
    </mxGraphModel>
  </diagram>
</mxfile>
